<?xml version="1.0" encoding="UTF-8" standalone="no"?>
<!DOCTYPE svg PUBLIC "-//W3C//DTD SVG 1.1//EN"
 "http://www.w3.org/Graphics/SVG/1.1/DTD/svg11.dtd">
<!-- Generated by graphviz version 2.40.1 (20161225.0304)
 -->
<!-- Title: G Pages: 1 -->
<svg width="812pt" height="690pt"
 viewBox="0.00 0.00 811.89 690.00" xmlns="http://www.w3.org/2000/svg" xmlns:xlink="http://www.w3.org/1999/xlink">
<g id="graph0" class="graph" transform="scale(1 1) rotate(0) translate(4 686)">
<title>G</title>
<polygon fill="#ffffff" stroke="transparent" points="-4,4 -4,-686 807.8893,-686 807.8893,4 -4,4"/>
<g id="clust1" class="cluster">
<title>cluster_Global</title>
<path fill="none" stroke="#c0c0c0" d="M180.8893,-44C180.8893,-44 783.8893,-44 783.8893,-44 789.8893,-44 795.8893,-50 795.8893,-56 795.8893,-56 795.8893,-662 795.8893,-662 795.8893,-668 789.8893,-674 783.8893,-674 783.8893,-674 180.8893,-674 180.8893,-674 174.8893,-674 168.8893,-668 168.8893,-662 168.8893,-662 168.8893,-56 168.8893,-56 168.8893,-50 174.8893,-44 180.8893,-44"/>
<text text-anchor="middle" x="482.3893" y="-661.2" font-family="Times,serif" font-size="11.00" fill="#c0c0c0">Global</text>
</g>
<g id="clust2" class="cluster">
<title>cluster_\Pablotron</title>
<path fill="none" stroke="#c0c0c0" d="M188.8893,-52C188.8893,-52 775.8893,-52 775.8893,-52 781.8893,-52 787.8893,-58 787.8893,-64 787.8893,-64 787.8893,-634 787.8893,-634 787.8893,-640 781.8893,-646 775.8893,-646 775.8893,-646 188.8893,-646 188.8893,-646 182.8893,-646 176.8893,-640 176.8893,-634 176.8893,-634 176.8893,-64 176.8893,-64 176.8893,-58 182.8893,-52 188.8893,-52"/>
<text text-anchor="middle" x="482.3893" y="-633.2" font-family="Times,serif" font-size="11.00" fill="#c0c0c0">Pablotron</text>
</g>
<g id="clust3" class="cluster">
<title>cluster_\Pablotron\Luigi</title>
<path fill="none" stroke="#c0c0c0" d="M196.8893,-60C196.8893,-60 767.8893,-60 767.8893,-60 773.8893,-60 779.8893,-66 779.8893,-72 779.8893,-72 779.8893,-606 779.8893,-606 779.8893,-612 773.8893,-618 767.8893,-618 767.8893,-618 196.8893,-618 196.8893,-618 190.8893,-618 184.8893,-612 184.8893,-606 184.8893,-606 184.8893,-72 184.8893,-72 184.8893,-66 190.8893,-60 196.8893,-60"/>
<text text-anchor="middle" x="482.3893" y="-605.2" font-family="Times,serif" font-size="11.00" fill="#c0c0c0">Luigi</text>
</g>
<!-- \\Pablotron\\Luigi\\LuigiError -->
<g id="node1" class="node">
<title>\\Pablotron\\Luigi\\LuigiError</title>
<polygon fill="none" stroke="#000000" points="276.8893,-482 192.8893,-482 192.8893,-446 276.8893,-446 276.8893,-482"/>
<text text-anchor="middle" x="234.8893" y="-461.2" font-family="Courier,monospace" font-size="11.00" fill="#000000">LuigiError</text>
</g>
<!-- \\Exception -->
<g id="node16" class="node">
<title>\\Exception</title>
<ellipse fill="none" stroke="#000000" cx="60.4446" cy="-464" rx="60.3893" ry="18"/>
<text text-anchor="middle" x="60.4446" y="-460.3" font-family="Times,serif" font-size="14.00" fill="#c0c0c0">\Exception</text>
</g>
<!-- \\Pablotron\\Luigi\\LuigiError&#45;&gt;\\Exception -->
<g id="edge1" class="edge">
<title>\\Pablotron\\Luigi\\LuigiError&#45;&gt;\\Exception</title>
<path fill="none" stroke="#000000" d="M192.6611,-464C174.2036,-464 152.0444,-464 131.1894,-464"/>
<polygon fill="none" stroke="#000000" points="131.0782,-460.5001 121.0782,-464 131.0781,-467.5001 131.0782,-460.5001"/>
</g>
<!-- \\Pablotron\\Luigi\\UnknownTypeError -->
<g id="node2" class="node">
<title>\\Pablotron\\Luigi\\UnknownTypeError</title>
<polygon fill="none" stroke="#000000" points="510.8893,-536 385.8893,-536 385.8893,-500 510.8893,-500 510.8893,-536"/>
<text text-anchor="middle" x="448.3893" y="-515.2" font-family="Courier,monospace" font-size="11.00" fill="#000000">UnknownTypeError</text>
</g>
<!-- \\Pablotron\\Luigi\\UnknownTypeError&#45;&gt;\\Pablotron\\Luigi\\LuigiError -->
<g id="edge2" class="edge">
<title>\\Pablotron\\Luigi\\UnknownTypeError&#45;&gt;\\Pablotron\\Luigi\\LuigiError</title>
<path fill="none" stroke="#000000" d="M385.7748,-502.1631C354.3798,-494.2224 316.8032,-484.7183 287.0033,-477.1811"/>
<polygon fill="none" stroke="#000000" points="287.7685,-473.7645 277.2155,-474.7055 286.052,-480.5507 287.7685,-473.7645"/>
</g>
<!-- \\Pablotron\\Luigi\\UnknownTemplateError -->
<g id="node3" class="node">
<title>\\Pablotron\\Luigi\\UnknownTemplateError</title>
<polygon fill="none" stroke="#000000" points="771.8893,-590 619.8893,-590 619.8893,-554 771.8893,-554 771.8893,-590"/>
<text text-anchor="middle" x="695.8893" y="-569.2" font-family="Courier,monospace" font-size="11.00" fill="#000000">UnknownTemplateError</text>
</g>
<!-- \\Pablotron\\Luigi\\UnknownTemplateError&#45;&gt;\\Pablotron\\Luigi\\UnknownTypeError -->
<g id="edge3" class="edge">
<title>\\Pablotron\\Luigi\\UnknownTemplateError&#45;&gt;\\Pablotron\\Luigi\\UnknownTypeError</title>
<path fill="none" stroke="#000000" d="M619.6116,-555.3576C588.2115,-548.5067 552.0052,-540.6071 520.9973,-533.8418"/>
<polygon fill="none" stroke="#000000" points="521.6414,-530.4 511.1252,-531.6878 520.1492,-537.2391 521.6414,-530.4"/>
</g>
<!-- \\Pablotron\\Luigi\\UnknownFilterError -->
<g id="node4" class="node">
<title>\\Pablotron\\Luigi\\UnknownFilterError</title>
<polygon fill="none" stroke="#000000" points="764.8893,-536 626.8893,-536 626.8893,-500 764.8893,-500 764.8893,-536"/>
<text text-anchor="middle" x="695.8893" y="-515.2" font-family="Courier,monospace" font-size="11.00" fill="#000000">UnknownFilterError</text>
</g>
<!-- \\Pablotron\\Luigi\\UnknownFilterError&#45;&gt;\\Pablotron\\Luigi\\UnknownTypeError -->
<g id="edge4" class="edge">
<title>\\Pablotron\\Luigi\\UnknownFilterError&#45;&gt;\\Pablotron\\Luigi\\UnknownTypeError</title>
<path fill="none" stroke="#000000" d="M626.6176,-518C593.8289,-518 554.6652,-518 521.4115,-518"/>
<polygon fill="none" stroke="#000000" points="521.2947,-514.5001 511.2947,-518 521.2946,-521.5001 521.2947,-514.5001"/>
</g>
<!-- \\Pablotron\\Luigi\\UnknownKeyError -->
<g id="node5" class="node">
<title>\\Pablotron\\Luigi\\UnknownKeyError</title>
<polygon fill="none" stroke="#000000" points="754.8893,-482 636.8893,-482 636.8893,-446 754.8893,-446 754.8893,-482"/>
<text text-anchor="middle" x="695.8893" y="-461.2" font-family="Courier,monospace" font-size="11.00" fill="#000000">UnknownKeyError</text>
</g>
<!-- \\Pablotron\\Luigi\\UnknownKeyError&#45;&gt;\\Pablotron\\Luigi\\UnknownTypeError -->
<g id="edge5" class="edge">
<title>\\Pablotron\\Luigi\\UnknownKeyError&#45;&gt;\\Pablotron\\Luigi\\UnknownTypeError</title>
<path fill="none" stroke="#000000" d="M636.6069,-476.9343C601.9662,-484.4923 557.9752,-494.0903 521.2344,-502.1065"/>
<polygon fill="none" stroke="#000000" points="520.1017,-498.7712 511.0776,-504.3225 521.5939,-505.6103 520.1017,-498.7712"/>
</g>
<!-- \\Pablotron\\Luigi\\MissingFilterParameterError -->
<g id="node6" class="node">
<title>\\Pablotron\\Luigi\\MissingFilterParameterError</title>
<polygon fill="none" stroke="#000000" points="547.8893,-482 348.8893,-482 348.8893,-446 547.8893,-446 547.8893,-482"/>
<text text-anchor="middle" x="448.3893" y="-461.2" font-family="Courier,monospace" font-size="11.00" fill="#000000">MissingFilterParameterError</text>
</g>
<!-- \\Pablotron\\Luigi\\MissingFilterParameterError&#45;&gt;\\Pablotron\\Luigi\\LuigiError -->
<g id="edge6" class="edge">
<title>\\Pablotron\\Luigi\\MissingFilterParameterError&#45;&gt;\\Pablotron\\Luigi\\LuigiError</title>
<path fill="none" stroke="#000000" d="M348.8276,-464C327.4556,-464 305.6977,-464 287.0011,-464"/>
<polygon fill="none" stroke="#000000" points="286.9511,-460.5001 276.951,-464 286.951,-467.5001 286.9511,-460.5001"/>
</g>
<!-- \\Pablotron\\Luigi\\InvalidTemplateError -->
<g id="node7" class="node">
<title>\\Pablotron\\Luigi\\InvalidTemplateError</title>
<polygon fill="none" stroke="#000000" points="524.3893,-428 372.3893,-428 372.3893,-392 524.3893,-392 524.3893,-428"/>
<text text-anchor="middle" x="448.3893" y="-407.2" font-family="Courier,monospace" font-size="11.00" fill="#000000">InvalidTemplateError</text>
</g>
<!-- \\Pablotron\\Luigi\\InvalidTemplateError&#45;&gt;\\Pablotron\\Luigi\\LuigiError -->
<g id="edge7" class="edge">
<title>\\Pablotron\\Luigi\\InvalidTemplateError&#45;&gt;\\Pablotron\\Luigi\\LuigiError</title>
<path fill="none" stroke="#000000" d="M377,-428.0563C347.5477,-435.5056 314.0468,-443.9789 286.9719,-450.8269"/>
<polygon fill="none" stroke="#000000" points="285.7681,-447.5211 276.9316,-453.3663 287.4846,-454.3074 285.7681,-447.5211"/>
</g>
<!-- \\Pablotron\\Luigi\\RunContext -->
<g id="node8" class="node">
<title>\\Pablotron\\Luigi\\RunContext</title>
<polygon fill="none" stroke="#000000" points="737.8893,-428 653.8893,-428 653.8893,-392 737.8893,-392 737.8893,-428"/>
<text text-anchor="middle" x="695.8893" y="-407.2" font-family="Courier,monospace" font-size="11.00" fill="#000000">RunContext</text>
</g>
<!-- \\Pablotron\\Luigi\\TemplateFilter -->
<g id="node9" class="node">
<title>\\Pablotron\\Luigi\\TemplateFilter</title>
<polygon fill="none" stroke="#000000" points="751.3893,-374 640.3893,-374 640.3893,-338 751.3893,-338 751.3893,-374"/>
<text text-anchor="middle" x="695.8893" y="-353.2" font-family="Courier,monospace" font-size="11.00" fill="#000000">TemplateFilter</text>
</g>
<!-- \\Pablotron\\Luigi\\Token -->
<g id="node10" class="node">
<title>\\Pablotron\\Luigi\\Token</title>
<polygon fill="none" stroke="#000000" points="490.3893,-293 406.3893,-293 406.3893,-257 490.3893,-257 490.3893,-293"/>
<text text-anchor="start" x="414.3893" y="-278.2" font-family="Courier,monospace" font-size="11.00" fill="#000000">«abstract»</text>
<text text-anchor="start" x="431.3893" y="-266.2" font-family="Courier,monospace" font-size="11.00" fill="#000000">Token</text>
</g>
<!-- \\Pablotron\\Luigi\\LiteralToken -->
<g id="node11" class="node">
<title>\\Pablotron\\Luigi\\LiteralToken</title>
<polygon fill="none" stroke="#000000" points="744.8893,-320 646.8893,-320 646.8893,-284 744.8893,-284 744.8893,-320"/>
<text text-anchor="middle" x="695.8893" y="-299.2" font-family="Courier,monospace" font-size="11.00" fill="#000000">LiteralToken</text>
</g>
<!-- \\Pablotron\\Luigi\\LiteralToken&#45;&gt;\\Pablotron\\Luigi\\Token -->
<g id="edge8" class="edge">
<title>\\Pablotron\\Luigi\\LiteralToken&#45;&gt;\\Pablotron\\Luigi\\Token</title>
<path fill="none" stroke="#000000" d="M646.6953,-296.6334C604.4099,-292.0204 543.6082,-285.3875 500.4987,-280.6847"/>
<polygon fill="none" stroke="#000000" points="500.811,-277.1981 490.4904,-279.5928 500.0518,-284.1568 500.811,-277.1981"/>
</g>
<!-- \\Pablotron\\Luigi\\FilterToken -->
<g id="node12" class="node">
<title>\\Pablotron\\Luigi\\FilterToken</title>
<polygon fill="none" stroke="#000000" points="741.3893,-266 650.3893,-266 650.3893,-230 741.3893,-230 741.3893,-266"/>
<text text-anchor="middle" x="695.8893" y="-245.2" font-family="Courier,monospace" font-size="11.00" fill="#000000">FilterToken</text>
</g>
<!-- \\Pablotron\\Luigi\\FilterToken&#45;&gt;\\Pablotron\\Luigi\\Token -->
<g id="edge9" class="edge">
<title>\\Pablotron\\Luigi\\FilterToken&#45;&gt;\\Pablotron\\Luigi\\Token</title>
<path fill="none" stroke="#000000" d="M650.2055,-252.9837C607.8324,-257.6062 544.8198,-264.4803 500.5025,-269.3149"/>
<polygon fill="none" stroke="#000000" points="500.0666,-265.8416 490.5051,-270.4055 500.8258,-272.8003 500.0666,-265.8416"/>
</g>
<!-- \\Pablotron\\Luigi\\Filters -->
<g id="node13" class="node">
<title>\\Pablotron\\Luigi\\Filters</title>
<polygon fill="none" stroke="#000000" points="727.8893,-212 663.8893,-212 663.8893,-176 727.8893,-176 727.8893,-212"/>
<text text-anchor="middle" x="695.8893" y="-191.2" font-family="Courier,monospace" font-size="11.00" fill="#000000">Filters</text>
</g>
<!-- \\Pablotron\\Luigi\\Template -->
<g id="node14" class="node">
<title>\\Pablotron\\Luigi\\Template</title>
<polygon fill="none" stroke="#000000" points="731.3893,-158 660.3893,-158 660.3893,-122 731.3893,-122 731.3893,-158"/>
<text text-anchor="middle" x="695.8893" y="-137.2" font-family="Courier,monospace" font-size="11.00" fill="#000000">Template</text>
</g>
<!-- \\Pablotron\\Luigi\\Cache -->
<g id="node15" class="node">
<title>\\Pablotron\\Luigi\\Cache</title>
<polygon fill="none" stroke="#000000" points="722.8893,-104 668.8893,-104 668.8893,-68 722.8893,-68 722.8893,-104"/>
<text text-anchor="middle" x="695.8893" y="-83.2" font-family="Courier,monospace" font-size="11.00" fill="#000000">Cache</text>
</g>
<!-- \\ArrayAccess -->
<g id="node17" class="node">
<title>\\ArrayAccess</title>
<ellipse fill="none" stroke="#000000" cx="448.3893" cy="-18" rx="72.5877" ry="18"/>
<text text-anchor="middle" x="448.3893" y="-14.3" font-family="Times,serif" font-size="14.00" fill="#c0c0c0">\ArrayAccess</text>
</g>
<!-- \\Pablotron\\Luigi\\Cache&#45;&gt;\\ArrayAccess -->
<g id="edge10" class="edge">
<title>\\Pablotron\\Luigi\\Cache&#45;&gt;\\ArrayAccess</title>
<path fill="none" stroke="#000000" stroke-dasharray="1,5" d="M668.4568,-78.463C629.7552,-67.8298 558.1618,-48.1597 507.145,-34.143"/>
<polygon fill="none" stroke="#000000" points="507.8019,-30.6938 497.2319,-31.4194 505.9473,-37.4437 507.8019,-30.6938"/>
</g>
</g>
</svg>
